<svg xmlns="http://www.w3.org/2000/svg" viewBox="0 0 474.11 181.87"><defs><style>.cls-1{fill:#293380;}</style></defs><g id="Layer_2" data-name="Layer 2"><g id="Layer_1-2" data-name="Layer 1"><path class="cls-1" d="M474.11,72.11v10.8H0V72.11Z"/><path class="cls-1" d="M238.94,156.43c-2.34.64-5.12.53-6.95,2.31-7.12,7.07-14.21,14.19-21.32,21.28-5.34,5.45-13.59-2.39-7.74-7.59q10.6-10.53,21.15-21.11a3.81,3.81,0,0,0,1.47-3.35c-.09-1.29.91-2.67,1.61-4.49-1.34-1.24-2.93-2.79-4.63-4.21-.46-.39-1.31-.26-1.9-.54-1.4-.64-3.12-1.08-4-2.17-1.17-1.41-.83-3.32.55-4.7,6.91-7,13.78-13.94,20.85-20.71a5,5,0,0,1,4.44-.71c1.15.53,1.67,2.48,2.38,3.85.44.85.47,2,1.09,2.66q10,10.22,20.25,20.26c.64.63,1.85.65,2.72,1.09,1.31.66,3.22,1.17,3.67,2.24a5,5,0,0,1-.63,4.43q-10.24,10.69-21,20.95c-.87.83-3,1-4.22.59-1-.33-2.39-2.06-2.27-3,.28-2.23-.92-3.31-2.21-4.57-1.05-1-2-2.15-3-3.22Zm-14.42-19.94,22,21.95,18.12-18.12-4.37-4.74-3.64,3.87c-.53-.65-1-1.27-1.64-2l3.3-3.45-1.63-2.14-5.24,6L249,135.19c2-1.8,3.85-3.5,5.8-5.29l-2.14-2-5.28,5.77-2.22-2c2.18-1.89,4.1-3.55,6.15-5.34l-2.39-2.18-3.44,3.8-1.93-1.62,3.42-3.66-4.15-4.54ZM242.2,114c-.44-.5-.82-1.19-1-1.14a3.71,3.71,0,0,0-1.84.9q-9.72,9.65-19.36,19.38c-.53.55-.56,1.6-.82,2.42.83-.21,1.92-.15,2.45-.67C228.43,127.87,235.75,121.3,242.2,114Zm5.94,50.73c6.14-5.49,11.44-11.33,17.31-17,1.39-1.4,2.86-2.73,4.13-4.23.38-.45.2-1.38.28-2.09-.66.12-1.54,0-1.93.38-6.73,6.63-13.39,13.32-20.06,20C246.69,162.72,247.55,163.37,248.14,164.69Zm-39.42,6c-1.54,1.54-3,3-4.41,4.42s.08,2.15.83,3,1.56,1.83,2.82.55c1.47-1.49,3-2.92,4.56-4.42Zm16.73-9.8,5.5-5.39-3.32-3.21-5.06,5Zm4-14.68c-1.47,1-1.56,2-.29,3.2,1.54,1.46,3,3,4.52,4.51,1.23,1.24,2.23,1,3.05-.31Z"/><path class="cls-1" d="M370.31,38.46h-7.6V12.37h7.12L370,14c6.48-1.68,11.79-4.41,16.93,1.9C393.23,9,406.71,10.83,407,21.67c.19,5.51,0,11,0,16.71h-7.48c0-4.1,0-8.18,0-12.27,0-3.47-.42-7.34-4.63-7.71-4.55-.46-6.14,3.55-6.13,7.41-.1,4.17,0,8.35,0,12.63H381c0-4,0-7.87,0-11.77s-.25-8.12-4.71-8.25c-7-.13-5.9,7.08-6,12C370.29,33.05,370.31,35.67,370.31,38.46Z"/><path class="cls-1" d="M18.15,38.54V4.76c.22-.19.35-.38.46-.38,7,.17,14-.27,20.88.71,8.35,1.2,13.39,8.3,13.2,16.79A16.41,16.41,0,0,1,38.83,38a21.74,21.74,0,0,1-3.66.49C29.59,38.57,24,38.54,18.15,38.54Zm8.06-27.61V31.74c3.46,0,6.84.36,10.11-.09,5.26-.72,8.56-5.15,8.38-10.48C44.52,15.61,41,11.47,35.65,11,32.57,10.7,29.45,10.93,26.21,10.93Z"/><path class="cls-1" d="M347.74,14.81V2.29h7.4V38.48h-6.89c-.07-.75-.14-1.51-.24-2.63-5.79,5.32-14,3.37-18.57-2.07-4.27-5.17-3.55-13.68,1-18.28A13.18,13.18,0,0,1,347.74,14.81Zm0,10.5c0-4.46-2.54-7.16-6.64-7.16-9.11-.14-8.91,14.76.09,14.47C345.24,32.56,347.79,29.71,347.76,25.31Z"/><path class="cls-1" d="M325.26,38.5h-8.12c-.81-1.91-1.53-3.92-2.52-5.78a3,3,0,0,0-2.07-1.44c-4.27-.14-8.55-.15-12.82,0a3.37,3.37,0,0,0-2.25,1.62c-1,1.76-1.2,4.53-2.61,5.33-1.7,1-4.31.29-6.53.32-.31,0-.63-.06-1.27-.13,4.63-10.81,9.46-21.23,14.13-32,.71-1.63,1.6-2.1,3.41-2.32,4.26-.52,6.24,1.09,7.83,5.1C316.31,19.18,321.21,28.61,325.26,38.5ZM311.49,25.12C309.72,20.8,308,16.7,306.11,12c-1.94,4.71-3.65,8.84-5.39,13.09Z"/><path class="cls-1" d="M455.51,38.48h-7.45c0-4.82.06-9.56,0-14.29s-3.63-7.08-7.89-5.3c-2.57,1.08-3.58,3.27-3.61,5.94-.09,4.56.13,9.05-.11,13.61h-7.52V12.36h7.15c.06.81.11,1.58.19,2.65,6.17-5.69,18.64-3.71,19.17,5.56C455.79,26.44,455.51,32.36,455.51,38.48Z"/><path class="cls-1" d="M148.43,38.48h-7.57V12.32h7c.09.77.17,1.55.29,2.59,5.91-5.26,18.25-3.81,19.05,5,.44,6.1.11,12.26.11,18.5H160c0-4.53,0-8.95,0-13.36s-1.82-6.75-5.36-6.71c-3.77.05-6.1,2.56-6.15,6.8S148.43,33.87,148.43,38.48Z"/><path class="cls-1" d="M250.72,38.48H243V12.4h7.21c.07.7.16,1.48.19,1.78,2.72-.76,5.44-2.07,8.23-2.22,7-.37,10.95,3.45,11.31,10.7.27,5.16.06,10.34.06,15.7h-7.73V28.49c.05-4.28.6-9.73-4.91-10.11A5.9,5.9,0,0,0,251,23a23.25,23.25,0,0,0-.24,4.18C250.71,30.87,250.72,34.56,250.72,38.48Z"/><path class="cls-1" d="M115.44,27.47c2,5.82,7.61,6.9,14.19,3l3.82,4.15c-2.24,2.81-5.22,3.73-8.43,4.21-6.85,1-13.4-2-16-7.54-5.72-12.65,7.51-23.74,19.51-17.85,5.09,2.65,7.53,7.76,6.59,14.07Zm12.39-4.55c-.26-7.2-12.45-7-12.15.18C119.71,23,123.85,23.39,127.83,22.92Z"/><path class="cls-1" d="M82.05,34.6c-5.23,5.72-16.25,5.77-21.85.28a13.51,13.51,0,0,1,.07-19.22,15,15,0,0,1,16.52-2.37c5.32,2.64,7.75,7.5,6.92,14.21H64.11c1.68,5.72,7.62,6.9,14.11,2.92ZM76.56,23c-.73-7.35-12.18-7.22-12.36,0Z"/><path class="cls-1" d="M223.48,11.86c8.43,0,14.38,5.62,14.39,13.57-.33,18.07-28.69,17.94-29-.13C208.9,17.56,215.09,11.85,223.48,11.86Zm6.61,13.38c0-4.38-2.63-7.11-6.74-7.08-9.07-.13-8.75,14.89.25,14.46C227.57,32.55,230.13,29.64,230.09,25.24Z"/><path class="cls-1" d="M90.24,18.78l-3.92-.23V12.88l3.86-.19V6.48h7.69v6.25h6.54v5.92H97.89c0,3.65-.08,7,0,10.36,0,4.11,3.16,4.52,6.39,3.06l2,5.2a12.23,12.23,0,0,1-11.42.61c-3.52-1.51-4.61-4.68-4.64-8.27S90.24,22.55,90.24,18.78Z"/><path class="cls-1" d="M189.87,32.18l1.92,5.12a12.35,12.35,0,0,1-11.7.42c-3.6-1.73-4.36-5.07-4.36-8.7,0-3.36,0-6.72,0-10.31h-3.86V12.78h3.86V6.45h7.6v6.27h6.52v5.83h-6.34c0,4.05-.09,7.79,0,11.53C183.68,33.55,187.46,33,189.87,32.18Z"/><path class="cls-1" d="M73.4,112.39c-11.21,9.45-7.09,3.55-5.8,16.9-11-6.45-6.33-6.78-17.41,0l-.59-.36c3.67-14.36,3.53-7.07-5.17-17.13,13.14-1.35,8.88,2.14,14-10.2l.72-.06c5.27,12.12.76,9,13.94,10.19Z"/><path class="cls-1" d="M103.71,101.63c4.63,12.41,2.13,8.34,14.21,10.69L110,119l2.56,9.92-.52.41c-11.2-6.74-6.23-6.69-17.41,0l-.57-.37c3.53-14.39,3.8-6.92-5.14-17.13,13.26-1.32,8.82,2,14-10.22Z"/><path class="cls-1" d="M156.44,129.29c-11.41-6.83-6-6.57-17.41,0l-.51-.41c3.22-12.38,3.85-8.57-6-17,3.59-.24,6.4-.53,9.22-.58a2.39,2.39,0,0,0,2.63-1.9c.89-2.66,2-5.26,3-7.88l.72.06c5.56,13.78,1,7.73,14.22,10.8-9.87,8.89-8.34,3.49-5.32,16.48Z"/><path class="cls-1" d="M334.41,129.31l-8.71-5.45-8.7,5.41-.58-.34c3.73-14.35,3.54-7.08-5.15-17.16,13.31-1.26,8.87,2.09,14.05-10.27l.74,0c5.35,13.73,1.12,7.84,14.2,10.8a55.57,55.57,0,0,1-5.12,4.26c-2.31,1.52-3,3.2-1.92,5.84a50.31,50.31,0,0,1,1.71,6.49Z"/><path class="cls-1" d="M384.71,112.39l-7.86,6.6c.86,3.32,1.72,6.6,2.57,9.89l-.49.42c-11.33-6.54-6.17-6.72-17.53,0l-.51-.4c.87-3.3,1.73-6.59,2.61-9.92l-8.54-7.1c3.45-.25,6.17-.59,8.89-.58a2.76,2.76,0,0,0,3.09-2.31c.8-2.53,1.88-5,2.84-7.45h.7c5.23,12.19.78,9,13.94,10.23Z"/><path class="cls-1" d="M415,101.54c5.64,13.75,1,7.79,14.28,10.78L421.33,119l2.56,9.88-.49.42c-11.32-6.54-6.16-6.72-17.53,0l-.5-.4q1.29-5,2.6-9.92l-8.54-7.1c3.46-.25,6.18-.59,8.89-.58,1.81,0,2.57-.67,3.09-2.32.8-2.53,1.88-5,2.85-7.45Z"/><path class="cls-1" d="M196.2,12.3h7.46V38.39H196.2Z"/><path class="cls-1" d="M414,38.42V12.36h7.49V38.42Z"/><path class="cls-1" d="M199.88,8.48c-6.44-.06-6.28-8.39,0-8.48S206.11,8.58,199.88,8.48Z"/><path class="cls-1" d="M417.71,8.48c-6.45-.16-6.08-8.52.21-8.48S424,8.7,417.71,8.48Z"/></g></g></svg>